<svg width="24" height="24" fill="none" xmlns="http://www.w3.org/2000/svg"><g clip-path="url(#a)"><path d="M12 24c6.627 0 12-5.373 12-12S18.627 0 12 0 0 5.373 0 12s5.373 12 12 12Z" fill="#313135"/><path d="M12.607 17.395c-5.38 0-8.448-3.706-8.576-9.883h2.695c.089 4.526 2.075 6.424 3.649 6.839V7.52h2.537v3.904c1.554-.168 3.187-1.947 3.738-3.903h2.537a7.552 7.552 0 0 1-1.207 2.832 7.51 7.51 0 0 1-2.235 2.11 7.773 7.773 0 0 1 2.548 2.035 7.815 7.815 0 0 1 1.494 2.906h-2.803a4.88 4.88 0 0 0-1.505-2.383 4.842 4.842 0 0 0-2.567-1.146v3.529l-.305-.01Z" fill="#fff"/></g><defs><clipPath id="a"><path fill="#fff" d="M0 0h24v24H0z"/></clipPath></defs></svg>