<svg xmlns="http://www.w3.org/2000/svg" width="131" height="131" fill="none"><circle cx="65.5" cy="65.5" r="65.5" fill="#fff"/><path d="M105.151 46.926c-.958-3.497-3.778-6.264-7.343-7.204C91.369 38 65.455 38 65.455 38s-25.914.052-32.353 1.775c-3.565.94-6.385 3.706-7.343 7.203-1.97 11.223-2.714 28.343.053 39.096.958 3.497 3.778 6.264 7.343 7.204C39.594 95 65.508 95 65.508 95s25.914 0 32.353-1.722c3.565-.94 6.385-3.707 7.343-7.204 2.075-11.222 2.714-28.343-.053-39.148ZM57.207 78.714V54.286L78.705 66.5 57.207 78.714Z" fill="#313135"/></svg>