<svg xmlns="http://www.w3.org/2000/svg" width="131" height="131" fill="none"><circle cx="65.5" cy="65.5" r="65.5" fill="#fff"/><path d="M68.811 94.946C39.447 94.946 22.698 74.716 22 41h14.71c.482 24.707 11.326 35.065 19.916 37.33V41.055h13.85v21.309c8.482-.917 17.393-10.628 20.4-21.31h13.849a41.212 41.212 0 0 1-6.59 15.46 40.99 40.99 0 0 1-12.199 11.514 42.418 42.418 0 0 1 13.91 11.11A42.663 42.663 0 0 1 108 95H92.7a26.638 26.638 0 0 0-8.216-13.004 26.43 26.43 0 0 0-14.008-6.255V95l-1.665-.054Z" fill="#313135"/></svg>