<svg width="156" height="143" fill="none" xmlns="http://www.w3.org/2000/svg"><path d="M34.335 104.258c2.481-2.328 4.992-4.625 7.439-6.989 14.455-13.967 26.69-29.727 37.555-46.576 7.1-11.011 14.05-22.12 21.188-33.106 2.982-4.59 6.555-8.727 10.502-12.557C115.875.32 121.58-.944 127.951.663c7.08 1.785 12.319 5.79 14.314 13.13 1.254 4.616.444 9.096-1.414 13.41-2.669 6.195-6.847 11.35-11.438 16.188-9.158 9.65-19.678 17.664-30.645 25.112-20.239 13.744-41.739 25.26-63.795 35.78-.15.071-.316.111-.474.165l-.164-.19Zm-18.502 37.857c-2.921-5.327-4.976-10.686-6.686-16.179-3.57-11.472-5.727-23.236-7.204-35.14C.77 81.342.103 71.854.015 62.335-.1 49.632.373 36.965 3.73 24.596c1.669-6.151 4.586-11.581 9.7-15.582 8.822-6.9 20.87-2.73 23.241 8.053.8 3.638.358 7.317-.758 10.794-2.309 7.202-4.738 14.374-7.385 21.46-4.255 11.392-8.317 22.828-10.887 34.743-3.154 14.624-4.202 29.39-3.117 44.302.329 4.498.85 8.982 1.31 13.75Zm21.01-20.864c11.609 2.738 23.194 4.191 34.945 4.089 15.998-.137 31.38-3.54 46.399-8.848 5.264-1.861 10.539-3.706 15.868-5.367 4.628-1.442 9.31-1.462 13.781.659 3.981 1.889 6.787 4.817 7.454 9.375.487 3.332-.606 6.253-2.937 8.502a26.596 26.596 0 0 1-6.098 4.402c-5.841 3.045-12.192 4.673-18.662 5.654-32.179 4.88-62.24-1.079-90.15-17.813a4.826 4.826 0 0 1-.435-.29c-.04-.031-.05-.102-.165-.363Z" fill="#FE6D35"/></svg>