<svg width="24" height="24" fill="none" xmlns="http://www.w3.org/2000/svg"><rect width="24" height="24" rx="12" fill="#fff"/><path d="M7.844 7.188a1.969 1.969 0 0 0-1.969 1.968v5.688a1.969 1.969 0 0 0 1.969 1.969h8.312a1.969 1.969 0 0 0 1.969-1.97V9.157a1.969 1.969 0 0 0-1.969-1.969H7.844ZM17.25 9.55 12 12.378 6.75 9.551v-.395a1.094 1.094 0 0 1 1.094-1.094h8.312a1.094 1.094 0 0 1 1.094 1.094v.395Zm-10.5.994 5.043 2.715a.438.438 0 0 0 .414 0l5.043-2.715v4.299a1.093 1.093 0 0 1-1.094 1.094H7.844a1.093 1.093 0 0 1-1.094-1.094v-4.3Z" fill="#000"/></svg>