<svg width="24" height="24" fill="none" xmlns="http://www.w3.org/2000/svg"><g clip-path="url(#a)"><path d="M12 24c6.627 0 12-5.373 12-12S18.627 0 12 0 0 5.373 0 12s5.373 12 12 12Z" fill="#313135"/><path d="M19.266 8.596a1.895 1.895 0 0 0-1.345-1.32c-1.18-.315-5.928-.315-5.928-.315s-4.747.01-5.927.325a1.895 1.895 0 0 0-1.345 1.32c-.361 2.056-.498 5.192.01 7.162a1.894 1.894 0 0 0 1.345 1.32c1.18.316 5.927.316 5.927.316s4.748 0 5.927-.316a1.895 1.895 0 0 0 1.346-1.32c.38-2.056.497-5.192-.01-7.172Zm-8.784 5.824V9.945l3.939 2.237-3.939 2.238Z" fill="#fff"/></g><defs><clipPath id="a"><path fill="#fff" d="M0 0h24v24H0z"/></clipPath></defs></svg>