<svg width="24" height="24" fill="none" xmlns="http://www.w3.org/2000/svg"><g clip-path="url(#a)"><path d="M12 24c6.627 0 12-5.373 12-12S18.627 0 12 0 0 5.373 0 12s5.373 12 12 12Z" fill="#313135"/><path fill-rule="evenodd" clip-rule="evenodd" d="M5.159 11.67c3.69-1.604 6.149-2.66 7.38-3.171 3.513-1.458 4.243-1.711 4.72-1.72.104-.001.338.026.49.147a.53.53 0 0 1 .18.342c.025.164.033.331.02.497-.19 1.995-1.013 6.84-1.433 9.074-.177.945-.526 1.262-.864 1.294-.734.067-1.293-.485-2.005-.95-1.114-.728-1.743-1.182-2.824-1.892-1.25-.821-.44-1.273.273-2.01.186-.193 3.424-3.13 3.486-3.397.008-.033.015-.157-.059-.223s-.183-.043-.262-.025c-.111.025-1.89 1.198-5.337 3.518-.505.346-.962.514-1.372.505-.452-.01-1.321-.255-1.967-.464-.793-.257-1.422-.393-1.367-.83.028-.226.342-.458.94-.696Z" fill="#fff"/></g><defs><clipPath id="a"><path fill="#fff" d="M0 0h24v24H0z"/></clipPath></defs></svg>