<svg xmlns="http://www.w3.org/2000/svg" width="131" height="131" fill="none"><circle cx="65.5" cy="65.5" r="65.5" fill="#fff"/><path fill-rule="evenodd" clip-rule="evenodd" d="M28.153 63.69c20.137-8.748 33.564-14.517 40.279-17.304 19.18-7.957 23.166-9.34 25.763-9.386.572-.01 1.85.138 2.677.802.698.565.891 1.33.983 1.866.14.896.179 1.806.115 2.711-1.04 10.893-5.536 37.332-7.825 49.528-.967 5.161-2.874 6.889-4.72 7.062-4.006.368-7.056-2.644-10.941-5.184-6.078-3.974-9.512-6.448-15.414-10.326-6.82-4.482-2.398-6.946 1.488-10.972 1.017-1.054 18.69-17.084 19.03-18.54.044-.182.084-.86-.32-1.218-.406-.358-1-.236-1.43-.138-.61.138-10.321 6.54-29.133 19.206-2.757 1.888-5.254 2.806-7.49 2.756-2.467-.054-7.21-1.392-10.737-2.535-4.325-1.403-7.763-2.144-7.46-4.525.154-1.238 1.866-2.506 5.135-3.803Z" fill="#313135"/></svg>