<svg width="24" height="24" fill="none" xmlns="http://www.w3.org/2000/svg"><rect width="24" height="24" rx="12" fill="#fff"/><path d="M8.788 6.313c-.229 0-.455.083-.643.231l-.026.015-.014.013L6.738 7.98l.013.013c-.422.39-.553.973-.37 1.477v.013c.371 1.062 1.32 3.11 3.172 4.963 1.86 1.86 3.937 2.77 4.963 3.172h.014a1.574 1.574 0 0 0 1.518-.301l.013-.013.014-.014 1.354-1.354a.977.977 0 0 0 0-1.353l-1.777-1.777-.014-.028a.994.994 0 0 0-1.367 0l-.013.014-.862.862a7.09 7.09 0 0 1-1.79-1.23 5.54 5.54 0 0 1-1.217-1.779l.874-.875a.933.933 0 0 0-.013-1.34l.013-.013-.04-.04-1.75-1.806-.015-.013-.027-.015a1.037 1.037 0 0 0-.643-.231Zm0 .875a.16.16 0 0 1 .096.04l1.75 1.791.028.028.013.013c-.003-.002.026.042-.027.096L9.554 10.25l-.206.192.096.273s.504 1.344 1.56 2.352l.094.081a8.786 8.786 0 0 0 2.216 1.435l.273.124.206-.205 1.094-1.094c.074-.074.06-.074.135 0l1.792 1.791c.074.074.074.048 0 .123l-1.34 1.34c-.202.173-.415.208-.67.123-.992-.39-2.918-1.237-4.635-2.953-1.73-1.731-2.635-3.696-2.966-4.648-.067-.178-.02-.442.136-.575l.013-.013.014-.014 1.327-1.353a.158.158 0 0 1 .095-.042Z" fill="#000"/></svg>