<svg width="24" height="24" fill="none" xmlns="http://www.w3.org/2000/svg"><rect width="24" height="24" rx="12" fill="#fff"/><path d="M16.7 7.274a6.547 6.547 0 0 0-4.673-1.94c-3.64 0-6.607 2.967-6.607 6.607 0 1.166.307 2.3.88 3.3l-.933 3.426 3.5-.92a6.609 6.609 0 0 0 3.16.807c3.64 0 6.606-2.967 6.606-6.607A6.565 6.565 0 0 0 16.7 7.274Zm-4.673 10.16a5.508 5.508 0 0 1-2.8-.767l-.2-.12-2.08.547.553-2.027-.133-.206a5.507 5.507 0 0 1-.84-2.92 5.503 5.503 0 0 1 5.493-5.494c1.467 0 2.847.574 3.88 1.614a5.452 5.452 0 0 1 1.607 3.886c.013 3.027-2.454 5.487-5.48 5.487Zm3.013-4.107c-.167-.08-.98-.48-1.127-.54-.153-.053-.26-.08-.373.08-.113.167-.427.54-.52.647-.093.113-.193.127-.36.04-.167-.08-.7-.26-1.327-.82-.493-.44-.82-.98-.92-1.147-.093-.166-.013-.253.074-.34.073-.073.166-.193.246-.286.08-.094.114-.167.167-.274.053-.113.027-.206-.013-.286-.04-.08-.374-.894-.507-1.227-.133-.32-.273-.28-.373-.287h-.32a.599.599 0 0 0-.44.207c-.147.167-.574.567-.574 1.38s.594 1.6.674 1.707c.08.113 1.166 1.78 2.82 2.493.393.173.7.273.94.347.393.126.753.106 1.04.066.32-.046.98-.4 1.113-.786.14-.387.14-.714.093-.787-.046-.073-.146-.107-.313-.187Z" fill="#000"/></svg>