<svg width="24" height="24" viewBox="0 0 24 24" fill="none" xmlns="http://www.w3.org/2000/svg">
<g clip-path="url(#clip0_5986_1728)">
<path d="M12 24C18.6274 24 24 18.6274 24 12C24 5.37258 18.6274 0 12 0C5.37258 0 0 5.37258 0 12C0 18.6274 5.37258 24 12 24Z" fill="#313135"/>
<path d="M19.2658 8.5962C19.0903 7.95549 18.5736 7.44865 17.9205 7.27651C16.7409 6.96094 11.9932 6.96094 11.9932 6.96094C11.9932 6.96094 7.24557 6.9705 6.06598 7.28607C5.41281 7.45821 4.89612 7.96505 4.72064 8.60576C4.35994 10.6618 4.22346 13.7984 4.73039 15.7684C4.90586 16.4091 5.42256 16.916 6.07572 17.0881C7.25532 17.4037 12.003 17.4037 12.003 17.4037C12.003 17.4037 16.7506 17.4037 17.9302 17.0881C18.5834 16.916 19.1 16.4091 19.2755 15.7684C19.6557 13.7124 19.7727 10.5757 19.2658 8.5962ZM10.4822 14.42V9.94458L14.4207 12.1823L10.4822 14.42Z" fill="white"/>
</g>
<defs>
<clipPath id="clip0_5986_1728">
<rect width="24" height="24" fill="white"/>
</clipPath>
</defs>
</svg>
