<svg width="24" height="24" viewBox="0 0 24 24" fill="none" xmlns="http://www.w3.org/2000/svg">
<rect width="24" height="24" rx="12" fill="white"/>
<path d="M8.78821 6.3125C8.55939 6.3125 8.3332 6.39562 8.14508 6.54437L8.11883 6.55881L8.10483 6.57194L6.73764 7.98069L6.75077 7.99381C6.32945 8.38406 6.1982 8.96681 6.38152 9.47081C6.38239 9.473 6.38064 9.48131 6.38152 9.48394C6.75208 10.5462 7.70145 12.5946 9.55339 14.4469C11.4128 16.3063 13.4896 17.2163 14.5164 17.6188H14.5295C14.7871 17.7036 15.0621 17.7204 15.3281 17.6676C15.5941 17.6149 15.8419 17.4944 16.0476 17.3178L16.0608 17.3047L16.0748 17.2907L17.4293 15.9375C17.7924 15.5744 17.7924 14.947 17.4293 14.5839L15.6521 12.8067L15.6381 12.7792C15.275 12.4161 14.6341 12.4161 14.271 12.7792L14.2578 12.7932L13.396 13.6551C12.7394 13.3393 12.1354 12.9242 11.6053 12.4244C10.8895 11.7406 10.5229 10.9544 10.389 10.6464L11.2631 9.77138C11.6315 9.403 11.6372 8.79312 11.25 8.43175L11.2631 8.41775L11.2225 8.37706L9.47246 6.57194L9.45802 6.55881L9.43089 6.54437C9.2489 6.3966 9.02219 6.31486 8.78777 6.3125H8.78821ZM8.78821 7.1875C8.82058 7.1875 8.85252 7.20325 8.88446 7.22862L10.6345 9.01931L10.6616 9.04688L10.6747 9.06C10.6716 9.05781 10.701 9.10244 10.6476 9.15625L9.55383 10.25L9.3482 10.4416L9.44446 10.7146C9.44446 10.7146 9.94758 12.0591 11.0033 13.0666L11.0982 13.1484C12.115 14.0768 13.3137 14.5834 13.3137 14.5834L13.5871 14.7068L13.7928 14.5021L14.8865 13.4083C14.9609 13.3339 14.9478 13.3339 15.0221 13.4083L16.8137 15.199C16.8881 15.2734 16.8881 15.2471 16.8137 15.3215L15.4736 16.6616C15.2724 16.8348 15.0593 16.8698 14.8043 16.7849C13.812 16.3956 11.8861 15.5481 10.169 13.8318C8.43864 12.1006 7.53433 10.1362 7.2027 9.18381C7.13577 9.00575 7.18389 8.74194 7.3392 8.60938L7.35233 8.59625L7.36633 8.58181L8.69283 7.22862C8.71894 7.20462 8.75239 7.19013 8.78777 7.1875H8.78821Z" fill="black"/>
</svg>
