<?xml version="1.0" encoding="UTF-8"?> <svg xmlns="http://www.w3.org/2000/svg" width="131" height="131" viewBox="0 0 131 131" fill="none"><circle cx="65.5" cy="65.5" r="65.5" fill="white"></circle><path fill-rule="evenodd" clip-rule="evenodd" d="M28.1532 63.6904C48.2904 54.9416 61.7166 49.1734 68.4318 46.3857C87.6118 38.4292 91.5984 37.0459 94.1953 37.0004C94.7672 36.9908 96.0449 37.1382 96.8723 37.8023C97.5699 38.3672 97.7633 39.1318 97.8545 39.6678C97.995 40.5644 98.0339 41.4739 97.9705 42.3792C96.9304 53.2718 92.4341 79.711 90.1452 91.9069C89.1782 97.068 87.2706 98.7957 85.4251 98.9693C81.4192 99.3372 78.3692 96.3254 74.4835 93.7848C68.4056 89.8113 64.9715 87.3369 59.0704 83.4585C52.2507 78.9766 56.6724 76.5132 60.5582 72.4874C61.5748 71.4334 79.2478 55.4032 79.5889 53.9469C79.6318 53.765 79.6718 53.0872 79.2671 52.7289C78.8624 52.3707 78.2684 52.4933 77.8374 52.5912C77.2278 52.7289 67.5169 59.1309 48.7048 71.7971C45.9477 73.6847 43.4511 74.6032 41.2152 74.5527C38.7481 74.4989 34.0045 73.1611 30.478 72.0176C26.153 70.615 22.7148 69.8738 23.0187 67.493C23.1725 66.2549 24.884 64.9873 28.1532 63.6904Z" fill="#313135"></path></svg> 