<svg width="24" height="24" viewBox="0 0 24 24" fill="none" xmlns="http://www.w3.org/2000/svg">
<rect width="24" height="24" rx="12" fill="white"/>
<path d="M7.84375 7.1875C7.32161 7.1875 6.82085 7.39492 6.45163 7.76413C6.08242 8.13335 5.875 8.63411 5.875 9.15625V14.8438C5.875 15.3659 6.08242 15.8667 6.45163 16.2359C6.82085 16.6051 7.32161 16.8125 7.84375 16.8125H16.1562C16.6784 16.8125 17.1792 16.6051 17.5484 16.2359C17.9176 15.8667 18.125 15.3659 18.125 14.8438V9.15625C18.125 8.63411 17.9176 8.13335 17.5484 7.76413C17.1792 7.39492 16.6784 7.1875 16.1562 7.1875H7.84375ZM17.25 9.55131L12 12.378L6.75 9.55131V9.15625C6.75 8.86617 6.86523 8.58797 7.07035 8.38285C7.27547 8.17773 7.55367 8.0625 7.84375 8.0625H16.1562C16.4463 8.0625 16.7245 8.17773 16.9296 8.38285C17.1348 8.58797 17.25 8.86617 17.25 9.15625V9.55131ZM6.75 10.5449L11.7926 13.2604C11.8564 13.2947 11.9276 13.3127 12 13.3127C12.0724 13.3127 12.1436 13.2947 12.2074 13.2604L17.25 10.5449V14.8438C17.25 15.1338 17.1348 15.412 16.9296 15.6171C16.7245 15.8223 16.4463 15.9375 16.1562 15.9375H7.84375C7.55367 15.9375 7.27547 15.8223 7.07035 15.6171C6.86523 15.412 6.75 15.1338 6.75 14.8438V10.5449Z" fill="black"/>
</svg>
