<?xml version="1.0" encoding="UTF-8"?> <svg xmlns="http://www.w3.org/2000/svg" width="131" height="131" viewBox="0 0 131 131" fill="none"><circle cx="65.5" cy="65.5" r="65.5" fill="white"></circle><path d="M68.8115 94.9461C39.4469 94.9461 22.6979 74.7163 22 41H36.7091C37.1923 65.7073 48.0362 76.0649 56.6255 78.3307V41.0539H70.4757V62.3626C78.9576 61.4456 87.8689 51.7353 90.8751 41.0539H104.725C103.612 46.6084 101.369 51.8717 98.1356 56.5134C94.9022 61.1551 90.7489 65.075 85.9363 68.027C91.3017 70.7012 96.0421 74.4877 99.8452 79.137C103.648 83.7863 106.428 89.1927 108 95H92.7004C91.2967 89.9463 88.4382 85.4221 84.4841 81.9957C80.53 78.5692 75.6564 76.3933 70.4757 75.7413V95L68.8115 94.9461Z" fill="#313135"></path></svg> 