<svg width="64" height="64" viewBox="0 0 64 64" fill="none" xmlns="http://www.w3.org/2000/svg">
<path d="M51.3771 36.0423C51.9944 35.5646 52.494 34.9518 52.8378 34.2511C53.1816 33.5503 53.3603 32.7802 53.3603 31.9996C53.3603 31.2191 53.1816 30.4489 52.8378 29.7482C52.494 29.0474 51.9944 28.4347 51.3771 27.957C43.383 21.7734 34.4576 16.8985 24.9345 13.5143L23.1931 12.8956C19.8651 11.7143 16.3478 13.965 15.8971 17.4023C14.6385 27.0932 14.6385 36.9061 15.8971 46.597C16.3505 50.0343 19.8651 52.285 23.1931 51.1036L24.9345 50.485C34.4576 47.1008 43.383 42.2259 51.3771 36.0423Z" fill="white"/>
</svg>
