<svg width="24" height="24" viewBox="0 0 24 24" fill="none" xmlns="http://www.w3.org/2000/svg">
<g clip-path="url(#clip0_5986_1719)">
<path d="M12 24C18.6274 24 24 18.6274 24 12C24 5.37258 18.6274 0 12 0C5.37258 0 0 5.37258 0 12C0 18.6274 5.37258 24 12 24Z" fill="#313135"/>
<path fill-rule="evenodd" clip-rule="evenodd" d="M5.15894 11.6691C8.8482 10.0663 11.308 9.00954 12.5382 8.49882C16.0521 7.04114 16.7825 6.78771 17.2583 6.77938C17.363 6.77762 17.5971 6.80462 17.7487 6.92629C17.8765 7.02978 17.9119 7.16986 17.9286 7.26806C17.9544 7.43232 17.9615 7.59895 17.9499 7.7648C17.7593 9.7604 16.9356 14.6042 16.5163 16.8386C16.3391 17.7841 15.9896 18.1007 15.6515 18.1325C14.9176 18.1999 14.3588 17.6481 13.6469 17.1826C12.5334 16.4547 11.9043 16.0013 10.8232 15.2908C9.57375 14.4697 10.3838 14.0184 11.0957 13.2808C11.282 13.0877 14.5198 10.1509 14.5823 9.88408C14.5901 9.85075 14.5975 9.72658 14.5233 9.66093C14.4492 9.59531 14.3404 9.61777 14.2614 9.63571C14.1497 9.66093 12.3706 10.8338 8.92412 13.1543C8.419 13.5002 7.96161 13.6684 7.55198 13.6592C7.09999 13.6493 6.23094 13.4042 5.58486 13.1947C4.79249 12.9378 4.16259 12.802 4.21827 12.3658C4.24645 12.139 4.56001 11.9067 5.15894 11.6691Z" fill="white"/>
</g>
<defs>
<clipPath id="clip0_5986_1719">
<rect width="24" height="24" fill="white"/>
</clipPath>
</defs>
</svg>
