<svg width="24" height="24" viewBox="0 0 24 24" fill="none" xmlns="http://www.w3.org/2000/svg">
<rect width="24" height="24" rx="12" fill="white"/>
<path d="M16.7 7.27402C16.0887 6.65676 15.3607 6.16733 14.5584 5.83426C13.756 5.50119 12.8954 5.33114 12.0267 5.33402C8.3867 5.33402 5.42003 8.30069 5.42003 11.9407C5.42003 13.1074 5.7267 14.2407 6.30003 15.2407L5.3667 18.6674L8.8667 17.7474C9.83337 18.274 10.92 18.554 12.0267 18.554C15.6667 18.554 18.6334 15.5874 18.6334 11.9474C18.6334 10.1807 17.9467 8.52069 16.7 7.27402ZM12.0267 17.434C11.04 17.434 10.0734 17.1674 9.2267 16.6674L9.0267 16.5474L6.9467 17.094L7.50003 15.0674L7.3667 14.8607C6.8184 13.9854 6.52732 12.9735 6.5267 11.9407C6.5267 8.91402 8.99337 6.44735 12.02 6.44735C13.4867 6.44735 14.8667 7.02069 15.9 8.06069C16.4118 8.56993 16.8173 9.17572 17.0931 9.84291C17.3689 10.5101 17.5095 11.2254 17.5067 11.9474C17.52 14.974 15.0534 17.434 12.0267 17.434ZM15.04 13.3274C14.8734 13.2474 14.06 12.8474 13.9134 12.7874C13.76 12.734 13.6534 12.7074 13.54 12.8674C13.4267 13.034 13.1134 13.4074 13.02 13.514C12.9267 13.6274 12.8267 13.6407 12.66 13.554C12.4934 13.474 11.96 13.294 11.3334 12.734C10.84 12.294 10.5134 11.754 10.4134 11.5874C10.32 11.4207 10.4 11.334 10.4867 11.2474C10.56 11.174 10.6534 11.054 10.7334 10.9607C10.8134 10.8674 10.8467 10.794 10.9 10.6874C10.9534 10.574 10.9267 10.4807 10.8867 10.4007C10.8467 10.3207 10.5134 9.50735 10.38 9.17402C10.2467 8.85402 10.1067 8.89402 10.0067 8.88735H9.6867C9.57337 8.88735 9.40003 8.92735 9.2467 9.09402C9.10003 9.26069 8.67337 9.66069 8.67337 10.474C8.67337 11.2874 9.2667 12.074 9.3467 12.1807C9.4267 12.294 10.5134 13.9607 12.1667 14.674C12.56 14.8474 12.8667 14.9474 13.1067 15.0207C13.5 15.1474 13.86 15.1274 14.1467 15.0874C14.4667 15.0407 15.1267 14.6874 15.26 14.3007C15.4 13.914 15.4 13.5874 15.3534 13.514C15.3067 13.4407 15.2067 13.4074 15.04 13.3274Z" fill="black"/>
</svg>
