<svg width="24" height="24" viewBox="0 0 24 24" fill="none" xmlns="http://www.w3.org/2000/svg">
<g clip-path="url(#clip0_5986_1725)">
<path d="M24 12C24 5.37258 18.6274 0 12 0C5.37258 0 0 5.37258 0 12C0 18.6274 5.37258 24 12 24C18.6274 24 24 18.6274 24 12Z" fill="#313135"/>
<path d="M16.7005 7.27402C16.0892 6.65676 15.3612 6.16733 14.5589 5.83426C13.7565 5.50119 12.8959 5.33114 12.0272 5.33402C8.38719 5.33402 5.42052 8.30069 5.42052 11.9407C5.42052 13.1074 5.72719 14.2407 6.30052 15.2407L5.36719 18.6674L8.86719 17.7474C9.83386 18.274 10.9205 18.554 12.0272 18.554C15.6672 18.554 18.6339 15.5874 18.6339 11.9474C18.6339 10.1807 17.9472 8.52069 16.7005 7.27402ZM12.0272 17.434C11.0405 17.434 10.0739 17.1674 9.22719 16.6674L9.02719 16.5474L6.94719 17.094L7.50052 15.0674L7.36719 14.8607C6.81889 13.9854 6.52781 12.9735 6.52719 11.9407C6.52719 8.91402 8.99386 6.44735 12.0205 6.44735C13.4872 6.44735 14.8672 7.02069 15.9005 8.06069C16.4123 8.56993 16.8178 9.17572 17.0936 9.84291C17.3694 10.5101 17.51 11.2254 17.5072 11.9474C17.5205 14.974 15.0539 17.434 12.0272 17.434ZM15.0405 13.3274C14.8739 13.2474 14.0605 12.8474 13.9139 12.7874C13.7605 12.734 13.6539 12.7074 13.5405 12.8674C13.4272 13.034 13.1139 13.4074 13.0205 13.514C12.9272 13.6274 12.8272 13.6407 12.6605 13.554C12.4939 13.474 11.9605 13.294 11.3339 12.734C10.8405 12.294 10.5139 11.754 10.4139 11.5874C10.3205 11.4207 10.4005 11.334 10.4872 11.2474C10.5605 11.174 10.6539 11.054 10.7339 10.9607C10.8139 10.8674 10.8472 10.794 10.9005 10.6874C10.9539 10.574 10.9272 10.4807 10.8872 10.4007C10.8472 10.3207 10.5139 9.50735 10.3805 9.17402C10.2472 8.85402 10.1072 8.89402 10.0072 8.88735H9.68719C9.57386 8.88735 9.40052 8.92735 9.24719 9.09402C9.10052 9.26069 8.67386 9.66069 8.67386 10.474C8.67386 11.2874 9.26719 12.074 9.34719 12.1807C9.42719 12.294 10.5139 13.9607 12.1672 14.674C12.5605 14.8474 12.8672 14.9474 13.1072 15.0207C13.5005 15.1474 13.8605 15.1274 14.1472 15.0874C14.4672 15.0407 15.1272 14.6874 15.2605 14.3007C15.4005 13.914 15.4005 13.5874 15.3539 13.514C15.3072 13.4407 15.2072 13.4074 15.0405 13.3274Z" fill="white"/>
</g>
<defs>
<clipPath id="clip0_5986_1725">
<rect width="24" height="24" fill="white"/>
</clipPath>
</defs>
</svg>
