<svg width="156" height="143" viewBox="0 0 156 143" fill="none" xmlns="http://www.w3.org/2000/svg">
<path d="M34.3347 104.258C36.8161 101.93 39.327 99.6333 41.7737 97.2692C56.2292 83.3018 68.4631 67.5416 79.3286 50.6929C86.4298 39.682 93.3784 28.5728 100.517 17.5865C103.499 12.9977 107.072 8.86019 111.019 5.03006C115.875 0.319059 121.58 -0.944392 127.951 0.662583C135.031 2.44819 140.27 6.45334 142.265 13.7939C143.519 18.4087 142.709 22.889 140.851 27.203C138.182 33.398 134.004 38.5538 129.413 43.3906C120.255 53.0404 109.735 61.0551 98.7678 68.5034C78.5295 82.2473 57.0291 93.7623 34.9733 104.283C34.8229 104.354 34.6573 104.394 34.4989 104.448C34.4439 104.385 34.389 104.321 34.3347 104.258Z" fill="#FE6D35"/>
<path d="M15.8334 142.115C12.9116 136.788 10.857 131.429 9.14731 125.936C5.57682 114.464 3.4202 102.7 1.94268 90.7951C0.769627 81.3427 0.10211 71.8549 0.0153243 62.3367C-0.10039 49.6306 0.373304 36.9636 3.72973 24.5945C5.3989 18.4436 8.31562 13.0137 13.4309 9.01289C22.2519 2.11273 34.2999 6.28276 36.6713 17.0658C37.4712 20.7036 37.0286 24.3833 35.9134 27.8598C33.6042 35.0622 31.1749 42.2343 28.5279 49.3196C24.2726 60.7116 20.211 72.1478 17.6407 84.0634C14.4868 98.6868 13.4389 113.453 14.5244 128.365C14.8527 132.863 15.3742 137.347 15.8334 142.115Z" fill="#FE6D35"/>
<path d="M36.8435 121.251C48.4518 123.989 60.0369 125.442 71.7883 125.34C87.7858 125.203 103.168 121.8 118.187 116.492C123.451 114.631 128.726 112.786 134.055 111.125C138.683 109.683 143.365 109.663 147.836 111.784C151.817 113.673 154.623 116.601 155.29 121.159C155.777 124.491 154.684 127.412 152.353 129.661C150.564 131.388 148.462 132.913 146.255 134.063C140.414 137.108 134.063 138.736 127.593 139.717C95.4142 144.597 65.3532 138.638 37.4438 121.904C37.2941 121.815 37.148 121.719 37.0084 121.614C36.9679 121.583 36.9585 121.512 36.8435 121.251Z" fill="#FE6D35"/>
</svg>
