<?xml version="1.0" encoding="UTF-8"?> <svg xmlns="http://www.w3.org/2000/svg" width="131" height="131" viewBox="0 0 131 131" fill="none"><circle cx="65.5" cy="65.5" r="65.5" fill="white"></circle><path d="M105.151 46.9258C104.193 43.4286 101.373 40.6621 97.8077 39.7225C91.3691 38 65.4548 38 65.4548 38C65.4548 38 39.5406 38.0522 33.102 39.7747C29.5368 40.7143 26.7165 43.4808 25.7587 46.978C23.7899 58.2006 23.0449 75.3214 25.8119 86.0742C26.7697 89.5714 29.59 92.3379 33.1552 93.2775C39.5938 95 65.508 95 65.508 95C65.508 95 91.4223 95 97.8609 93.2775C101.426 92.3379 104.246 89.5714 105.204 86.0742C107.279 74.8516 107.918 57.7308 105.151 46.9258ZM57.207 78.7143V54.2857L78.7046 66.5L57.207 78.7143Z" fill="#313135"></path></svg> 