<svg width="24" height="24" viewBox="0 0 24 24" fill="none" xmlns="http://www.w3.org/2000/svg">
<g clip-path="url(#clip0_5986_1722)">
<path d="M12 24C18.6274 24 24 18.6274 24 12C24 5.37258 18.6274 0 12 0C5.37258 0 0 5.37258 0 12C0 18.6274 5.37258 24 12 24Z" fill="#313135"/>
<path d="M12.6074 17.395C7.22763 17.395 4.15911 13.6888 4.03125 7.51172H6.72605C6.81457 12.0382 8.80124 13.9358 10.3749 14.3509V7.52159H12.9123V11.4255C14.4662 11.2575 16.0988 9.47849 16.6496 7.52159H19.187C18.9831 8.53921 18.5721 9.50348 17.9798 10.3539C17.3874 11.2043 16.6265 11.9224 15.7448 12.4632C16.7277 12.9532 17.5962 13.6469 18.293 14.4987C18.9897 15.3504 19.499 16.3409 19.787 17.4048H16.984C16.7268 16.479 16.2031 15.6501 15.4787 15.0224C14.7543 14.3946 13.8614 13.996 12.9123 13.8765V17.4048L12.6074 17.395Z" fill="white"/>
</g>
<defs>
<clipPath id="clip0_5986_1722">
<rect width="24" height="24" fill="white"/>
</clipPath>
</defs>
</svg>
