<svg width="24" height="24" viewBox="0 0 24 24" fill="none" xmlns="http://www.w3.org/2000/svg">
<path d="M12.8842 5.11695C12.6493 4.88319 12.3315 4.75195 12.0002 4.75195C11.6688 4.75195 11.351 4.88319 11.1162 5.11695L6.11617 10.1169C6.00008 10.233 5.90799 10.3709 5.84516 10.5225C5.78234 10.6742 5.75 10.8368 5.75 11.0009C5.75 11.3325 5.88171 11.6505 6.11617 11.8849C6.35062 12.1194 6.6686 12.2511 7.00016 12.2511C7.33173 12.2511 7.64971 12.1194 7.88416 11.8849L10.7502 9.01895V18.0009C10.7502 18.3325 10.8819 18.6504 11.1163 18.8848C11.3507 19.1193 11.6686 19.2509 12.0002 19.2509C12.3317 19.2509 12.6496 19.1193 12.884 18.8848C13.1185 18.6504 13.2502 18.3325 13.2502 18.0009V9.01895L16.1162 11.8849C16.2323 12.001 16.3701 12.0931 16.5217 12.1559C16.6734 12.2188 16.836 12.2511 17.0002 12.2511C17.1643 12.2511 17.3269 12.2188 17.4786 12.1559C17.6303 12.0931 17.7681 12.001 17.8842 11.8849C18.0003 11.7689 18.0923 11.631 18.1552 11.4794C18.218 11.3277 18.2503 11.1651 18.2503 11.0009C18.2503 10.8368 18.218 10.6742 18.1552 10.5225C18.0923 10.3709 18.0003 10.233 17.8842 10.1169L12.8842 5.11695Z" fill="#EE7537"/>
</svg>
